<svg fill="#000000" width="32px" height="32px" viewBox="0 0 0.96 0.96" xmlns="http://www.w3.org/2000/svg"><path d="M0.84 0.08H0.12a0.04 0.04 0 0 0 -0.04 0.04v0.72a0.04 0.04 0 0 0 0.04 0.04h0.72a0.04 0.04 0 0 0 0.04 -0.04V0.12a0.04 0.04 0 0 0 -0.04 -0.04m-0.131 0.349a0.16 0.16 0 0 1 -0.013 0.001A0.143 0.143 0 0 1 0.576 0.365v0.22a0.162 0.162 0 1 1 -0.162 -0.162c0.003 0 0.007 0 0.01 0.001v0.08a0.083 0.083 0 1 0 -0.01 0.165 0.085 0.085 0 0 0 0.086 -0.082l0.001 -0.373h0.077A0.143 0.143 0 0 0 0.709 0.34Z"/></svg>